# xmcd
#
# Track frame offsets:
#	150
#	26702
#	45034
#	62943
#	89025
#	111157
#	126530
#	146118
#	158519
#
# Disc length: 2202 seconds
#
# Revision: 1
# Processed by: cddbd v1.5.2PL0 Copyright (c) Steve Scherf et al.
# Submitted via: audiograbber 1.83.01
#
DISCID=7d089809
DTITLE=Jake Walker - Confidence Man
DYEAR=2008
DGENRE=Blues
TTITLE0=Confidence man
TTITLE1=Can't get no gridin'
TTITLE2=Heads up
TTITLE3=Somebody on your bond
TTITLE4=Luck is bad
TTITLE5=Time for love
TTITLE6=Mondo freddie
TTITLE7=Miniskirt
TTITLE8=Confidence man ( Reprise)
EXTD=
EXTT0=
EXTT1=
EXTT2=
EXTT3=
EXTT4=
EXTT5=
EXTT6=
EXTT7=
EXTT8=
PLAYORDER=
